<svg width="92" height="17" viewBox="0 0 92 17" fill="none" xmlns="http://www.w3.org/2000/svg">
<path d="M7.92789 2.04248C8.27945 1.33936 9.27554 1.36865 9.59781 2.04248L11.5314 5.93896L15.8087 6.5542C16.5705 6.67139 16.8634 7.60889 16.3068 8.16553L13.2306 11.1831L13.963 15.4312C14.0802 16.1929 13.2599 16.7788 12.5861 16.4272L8.7775 14.4058L4.93961 16.4272C4.26578 16.7788 3.44547 16.1929 3.56265 15.4312L4.29507 11.1831L1.2189 8.16553C0.662262 7.60889 0.955231 6.67139 1.71695 6.5542L6.02359 5.93896L7.92789 2.04248ZM24.8029 2.04248C25.1544 1.33936 26.1505 1.36865 26.4728 2.04248L28.4064 5.93896L32.6837 6.5542C33.4455 6.67139 33.7384 7.60889 33.1818 8.16553L30.1056 11.1831L30.838 15.4312C30.9552 16.1929 30.1349 16.7788 29.4611 16.4272L25.6525 14.4058L21.8146 16.4272C21.1408 16.7788 20.3205 16.1929 20.4377 15.4312L21.1701 11.1831L18.0939 8.16553C17.5373 7.60889 17.8302 6.67139 18.5919 6.5542L22.8986 5.93896L24.8029 2.04248ZM41.6779 2.04248C42.0294 1.33936 43.0255 1.36865 43.3478 2.04248L45.2814 5.93896L49.5587 6.5542C50.3205 6.67139 50.6134 7.60889 50.0568 8.16553L46.9806 11.1831L47.713 15.4312C47.8302 16.1929 47.0099 16.7788 46.3361 16.4272L42.5275 14.4058L38.6896 16.4272C38.0158 16.7788 37.1955 16.1929 37.3127 15.4312L38.0451 11.1831L34.9689 8.16553C34.4123 7.60889 34.7052 6.67139 35.4669 6.5542L39.7736 5.93896L41.6779 2.04248ZM58.5529 2.04248C58.9044 1.33936 59.9005 1.36865 60.2228 2.04248L62.1564 5.93896L66.4337 6.5542C67.1955 6.67139 67.4884 7.60889 66.9318 8.16553L63.8556 11.1831L64.588 15.4312C64.7052 16.1929 63.8849 16.7788 63.2111 16.4272L59.4025 14.4058L55.5646 16.4272C54.8908 16.7788 54.0705 16.1929 54.1877 15.4312L54.9201 11.1831L51.8439 8.16553C51.2873 7.60889 51.5802 6.67139 52.3419 6.5542L56.6486 5.93896L58.5529 2.04248Z" fill="#72B3EA"/>
<path opacity="0.33" d="M7.92789 2.04248C8.27945 1.33936 9.27554 1.36865 9.59781 2.04248L11.5314 5.93896L15.8087 6.5542C16.5705 6.67139 16.8634 7.60889 16.3068 8.16553L13.2306 11.1831L13.963 15.4312C14.0802 16.1929 13.2599 16.7788 12.5861 16.4272L8.7775 14.4058L4.93961 16.4272C4.26578 16.7788 3.44547 16.1929 3.56265 15.4312L4.29507 11.1831L1.2189 8.16553C0.662262 7.60889 0.955231 6.67139 1.71695 6.5542L6.02359 5.93896L7.92789 2.04248ZM24.8029 2.04248C25.1544 1.33936 26.1505 1.36865 26.4728 2.04248L28.4064 5.93896L32.6837 6.5542C33.4455 6.67139 33.7384 7.60889 33.1818 8.16553L30.1056 11.1831L30.838 15.4312C30.9552 16.1929 30.1349 16.7788 29.4611 16.4272L25.6525 14.4058L21.8146 16.4272C21.1408 16.7788 20.3205 16.1929 20.4377 15.4312L21.1701 11.1831L18.0939 8.16553C17.5373 7.60889 17.8302 6.67139 18.5919 6.5542L22.8986 5.93896L24.8029 2.04248ZM41.6779 2.04248C42.0294 1.33936 43.0255 1.36865 43.3478 2.04248L45.2814 5.93896L49.5587 6.5542C50.3205 6.67139 50.6134 7.60889 50.0568 8.16553L46.9806 11.1831L47.713 15.4312C47.8302 16.1929 47.0099 16.7788 46.3361 16.4272L42.5275 14.4058L38.6896 16.4272C38.0158 16.7788 37.1955 16.1929 37.3127 15.4312L38.0451 11.1831L34.9689 8.16553C34.4123 7.60889 34.7052 6.67139 35.4669 6.5542L39.7736 5.93896L41.6779 2.04248ZM58.5529 2.04248C58.9044 1.33936 59.9005 1.36865 60.2228 2.04248L62.1564 5.93896L66.4337 6.5542C67.1955 6.67139 67.4884 7.60889 66.9318 8.16553L63.8556 11.1831L64.588 15.4312C64.7052 16.1929 63.8849 16.7788 63.2111 16.4272L59.4025 14.4058L55.5646 16.4272C54.8908 16.7788 54.0705 16.1929 54.1877 15.4312L54.9201 11.1831L51.8439 8.16553C51.2873 7.60889 51.5802 6.67139 52.3419 6.5542L56.6486 5.93896L58.5529 2.04248ZM75.4279 2.04248C75.7794 1.33936 76.7755 1.36865 77.0978 2.04248L79.0314 5.93896L83.3087 6.5542C84.0705 6.67139 84.3634 7.60889 83.8068 8.16553L80.7306 11.1831L81.463 15.4312C81.5802 16.1929 80.7599 16.7788 80.0861 16.4272L76.2775 14.4058L72.4396 16.4272C71.7658 16.7788 70.9455 16.1929 71.0627 15.4312L71.7951 11.1831L68.7189 8.16553C68.1623 7.60889 68.4552 6.67139 69.2169 6.5542L73.5236 5.93896L75.4279 2.04248Z" fill="#72B3EA"/>
</svg>
