<svg width="92" height="17" viewBox="0 0 92 17" fill="none" xmlns="http://www.w3.org/2000/svg">
<path d="M7.80789 2.04248C8.15945 1.33936 9.15555 1.36865 9.47781 2.04248L11.4114 5.93896L15.6888 6.5542C16.4505 6.67139 16.7434 7.60889 16.1868 8.16553L13.1106 11.1831L13.843 15.4312C13.9602 16.1929 13.1399 16.7788 12.4661 16.4272L8.6575 14.4058L4.81961 16.4272C4.14578 16.7788 3.32547 16.1929 3.44266 15.4312L4.17508 11.1831L1.09891 8.16553C0.542267 7.60889 0.835236 6.67139 1.59695 6.5542L5.90359 5.93896L7.80789 2.04248ZM24.6829 2.04248C25.0345 1.33936 26.0305 1.36865 26.3528 2.04248L28.2864 5.93896L32.5638 6.5542C33.3255 6.67139 33.6184 7.60889 33.0618 8.16553L29.9856 11.1831L30.718 15.4312C30.8352 16.1929 30.0149 16.7788 29.3411 16.4272L25.5325 14.4058L21.6946 16.4272C21.0208 16.7788 20.2005 16.1929 20.3177 15.4312L21.0501 11.1831L17.9739 8.16553C17.4173 7.60889 17.7102 6.67139 18.472 6.5542L22.7786 5.93896L24.6829 2.04248ZM41.5579 2.04248C41.9095 1.33936 42.9055 1.36865 43.2278 2.04248L45.1614 5.93896L49.4388 6.5542C50.2005 6.67139 50.4934 7.60889 49.9368 8.16553L46.8606 11.1831L47.593 15.4312C47.7102 16.1929 46.8899 16.7788 46.2161 16.4272L42.4075 14.4058L38.5696 16.4272C37.8958 16.7788 37.0755 16.1929 37.1927 15.4312L37.9251 11.1831L34.8489 8.16553C34.2923 7.60889 34.5852 6.67139 35.347 6.5542L39.6536 5.93896L41.5579 2.04248ZM58.4329 2.04248C58.7845 1.33936 59.7805 1.36865 60.1028 2.04248L62.0364 5.93896L66.3138 6.5542C67.0755 6.67139 67.3684 7.60889 66.8118 8.16553L63.7356 11.1831L64.468 15.4312C64.5852 16.1929 63.7649 16.7788 63.0911 16.4272L59.2825 14.4058L55.4446 16.4272C54.7708 16.7788 53.9505 16.1929 54.0677 15.4312L54.8001 11.1831L51.7239 8.16553C51.1673 7.60889 51.4602 6.67139 52.222 6.5542L56.5286 5.93896L58.4329 2.04248ZM75.3079 2.04248C75.6595 1.33936 76.6555 1.36865 76.9778 2.04248L78.9114 5.93896L83.1888 6.5542C83.9505 6.67139 84.2434 7.60889 83.6868 8.16553L80.6106 11.1831L81.343 15.4312C81.4602 16.1929 80.6399 16.7788 79.9661 16.4272L76.1575 14.4058L72.3196 16.4272C71.6458 16.7788 70.8255 16.1929 70.9427 15.4312L71.6751 11.1831L68.5989 8.16553C68.0423 7.60889 68.3352 6.67139 69.097 6.5542L73.4036 5.93896L75.3079 2.04248Z" fill="#72B3EA"/>
<path opacity="0.33" d="M7.80789 2.04248C8.15945 1.33936 9.15555 1.36865 9.47781 2.04248L11.4114 5.93896L15.6888 6.5542C16.4505 6.67139 16.7434 7.60889 16.1868 8.16553L13.1106 11.1831L13.843 15.4312C13.9602 16.1929 13.1399 16.7788 12.4661 16.4272L8.6575 14.4058L4.81961 16.4272C4.14578 16.7788 3.32547 16.1929 3.44266 15.4312L4.17508 11.1831L1.09891 8.16553C0.542267 7.60889 0.835236 6.67139 1.59695 6.5542L5.90359 5.93896L7.80789 2.04248ZM24.6829 2.04248C25.0345 1.33936 26.0305 1.36865 26.3528 2.04248L28.2864 5.93896L32.5638 6.5542C33.3255 6.67139 33.6184 7.60889 33.0618 8.16553L29.9856 11.1831L30.718 15.4312C30.8352 16.1929 30.0149 16.7788 29.3411 16.4272L25.5325 14.4058L21.6946 16.4272C21.0208 16.7788 20.2005 16.1929 20.3177 15.4312L21.0501 11.1831L17.9739 8.16553C17.4173 7.60889 17.7102 6.67139 18.472 6.5542L22.7786 5.93896L24.6829 2.04248ZM41.5579 2.04248C41.9095 1.33936 42.9055 1.36865 43.2278 2.04248L45.1614 5.93896L49.4388 6.5542C50.2005 6.67139 50.4934 7.60889 49.9368 8.16553L46.8606 11.1831L47.593 15.4312C47.7102 16.1929 46.8899 16.7788 46.2161 16.4272L42.4075 14.4058L38.5696 16.4272C37.8958 16.7788 37.0755 16.1929 37.1927 15.4312L37.9251 11.1831L34.8489 8.16553C34.2923 7.60889 34.5852 6.67139 35.347 6.5542L39.6536 5.93896L41.5579 2.04248ZM58.4329 2.04248C58.7845 1.33936 59.7805 1.36865 60.1028 2.04248L62.0364 5.93896L66.3138 6.5542C67.0755 6.67139 67.3684 7.60889 66.8118 8.16553L63.7356 11.1831L64.468 15.4312C64.5852 16.1929 63.7649 16.7788 63.0911 16.4272L59.2825 14.4058L55.4446 16.4272C54.7708 16.7788 53.9505 16.1929 54.0677 15.4312L54.8001 11.1831L51.7239 8.16553C51.1673 7.60889 51.4602 6.67139 52.222 6.5542L56.5286 5.93896L58.4329 2.04248ZM75.3079 2.04248C75.6595 1.33936 76.6555 1.36865 76.9778 2.04248L78.9114 5.93896L83.1888 6.5542C83.9505 6.67139 84.2434 7.60889 83.6868 8.16553L80.6106 11.1831L81.343 15.4312C81.4602 16.1929 80.6399 16.7788 79.9661 16.4272L76.1575 14.4058L72.3196 16.4272C71.6458 16.7788 70.8255 16.1929 70.9427 15.4312L71.6751 11.1831L68.5989 8.16553C68.0423 7.60889 68.3352 6.67139 69.097 6.5542L73.4036 5.93896L75.3079 2.04248Z" fill="#72B3EA"/>
</svg>
